<?xml version="1.0" encoding="UTF-8" standalone="no"?><!DOCTYPE svg PUBLIC "-//W3C//DTD SVG 1.1//EN" "http://www.w3.org/Graphics/SVG/1.1/DTD/svg11.dtd"><svg width="100%" height="100%" viewBox="0 0 192 210" version="1.1" xmlns="http://www.w3.org/2000/svg" xmlns:xlink="http://www.w3.org/1999/xlink" xml:space="preserve" style="fill-rule:evenodd;clip-rule:evenodd;stroke-linecap:round;stroke-linejoin:round;stroke-miterlimit:1.5;"><path id="ez_mark" d="M64.412,58.543l-7.199,-8.858l2.578,-7.689l-20.767,0l-20.49,16.257l0,-12.328l20.49,-19.48l30.452,0l11.394,17.668l26.272,0l11.393,-17.668l30.453,0l20.49,19.48l0,12.328l-20.488,-16.26l-20.77,0l1.739,7.853l-6.341,8.36l-0.086,0.311l-24.926,7.472l0,5.041l22.717,-4.74l-4.681,16.505l-22.633,23.783c-0.016,0.016 -22.647,-23.783 -22.647,-23.783l-4.674,-16.477l22.558,4.71l0,-5.039l-24.834,-7.446Zm34.73,61.172l-5.175,-4.709l-5.088,4.709l-12.076,-15.741l-3.949,-13.765l21.111,21.882l21.109,-21.88l-3.95,13.766l-11.982,15.738l0,0Zm70.217,-60.188l-9.316,-7.164l-9.669,7.164l18.987,0l-0.002,0Zm-150.825,0.023l9.313,-7.161l9.671,7.166l-18.984,0l0,-0.005Z" style="fill:#36200d;"/><path id="ERGODOX" d="M58.942,132.805l0,13.023l7.586,0l0,-1.638l-5.764,0l0,-4.185l4.695,0l0,-1.637l-4.695,0l0,-3.907l5.633,0l0,-1.655l-7.455,0l0,-0.001Zm12.98,7.925l2.893,5.284l1.953,-0.242l-2.93,-5.246c1.69,-0.465 2.704,-1.805 2.704,-3.423l0,-0.669c0,-2.065 -1.577,-3.628 -4.112,-3.628l-4.619,0l0,13.022l1.821,0l0,-5.098l2.291,0l-0.001,0Zm-2.29,-1.637l0,-4.632l2.798,0c1.465,0 2.272,0.911 2.272,2.214l0,0.205c0,1.265 -0.807,2.213 -2.272,2.213l-2.798,0Zm15.365,5.655l0.375,1.266l1.296,0l0,-7.163l-4.45,0l0,1.637l2.648,0l0,2.605c-0.642,0.868 -1.662,1.38 -2.741,1.377c-1.465,0 -2.367,-1.005 -2.367,-2.753l0,-4.801c0,-1.748 1.071,-2.715 2.592,-2.715c1.202,0 2.085,0.557 2.404,1.45l1.746,-0.465c-0.451,-1.617 -2.009,-2.641 -4.15,-2.641c-2.572,0 -4.431,1.6 -4.431,4.13l0,5.302c0,2.53 1.427,4.111 3.868,4.111c1.333,0 2.422,-0.596 3.211,-1.34l-0.001,0Zm3.16,-8.073l0,5.283c0,2.548 2.028,4.129 4.544,4.129c2.516,0 4.545,-1.581 4.545,-4.129l0,-5.283c0,-2.568 -2.029,-4.13 -4.545,-4.13c-2.516,0 -4.544,1.562 -4.544,4.13l0,0Zm1.84,5.022l0,-4.78c0,-1.786 1.221,-2.735 2.723,-2.735c1.483,0 2.685,0.949 2.685,2.735l0,4.78c0,1.805 -1.202,2.735 -2.685,2.735c-1.502,0 -2.723,-0.93 -2.723,-2.735Zm8.944,-8.892l0,13.023l4.619,0c2.534,0 4.093,-1.601 4.093,-4.131l0,-4.762c0,-2.53 -1.559,-4.129 -4.093,-4.129l-4.619,0l0,-0.001Zm4.619,11.385l-2.798,0l0,-9.728l2.798,0c1.464,0 2.271,0.948 2.271,2.716l0,4.279c0,1.767 -0.807,2.735 -2.271,2.735l0,-0.002Zm5.732,-7.515l0,5.283c0,2.549 2.028,4.13 4.544,4.13c2.516,0 4.544,-1.581 4.544,-4.13l0,-5.283c0,-2.567 -2.028,-4.129 -4.544,-4.129c-2.516,0 -4.544,1.562 -4.544,4.129l0,0Zm1.84,5.023l0,-4.781c0,-1.786 1.221,-2.735 2.722,-2.735c1.483,0 2.685,0.949 2.685,2.735l0,4.781c0,1.805 -1.202,2.735 -2.685,2.735c-1.501,0 -2.723,-0.93 -2.723,-2.735l0.001,0Zm17.862,-8.892l-2.272,0l-2.722,5.153l-2.741,-5.339l-2.16,0.242l3.736,6.399l-3.83,6.567l2.29,0l2.742,-5.284l2.742,5.284l2.29,0l-3.849,-6.605l3.774,-6.418l0,0.001Z" style="fill:#36200d;"/><path id="ez" d="M70.552,151.578l46.908,0l0,27.364l-46.908,0l0,-27.364Zm13.59,6.081l0,15.219l8.866,0l0,-1.912l-6.737,0l0,-4.892l5.485,0l0,-1.914l-5.486,0l0,-4.566l6.583,0l0,-1.936l-8.712,0l0.001,0.001Zm9.707,13.263l0,1.957l10.203,0l0,-1.913l-7.637,0l7.309,-11.329l0,-1.978l-9.635,0l0,1.913l7.111,0l-7.351,11.35l0,0Z" style="fill:#c59769;"/><path d="M190.719,14.679c0,-4.188 -3.401,-7.588 -7.589,-7.588l-174.541,0c-4.189,0 -7.589,3.4 -7.589,7.588l0,186.325c0,4.189 3.4,7.589 7.589,7.589l174.541,0c4.188,0 7.589,-3.4 7.589,-7.589l0,-186.325Z" style="fill:none;stroke:#385958;stroke-width:2px;"/><rect x="42.243" y="0" width="107.867" height="13.543" style="fill:#fff;"/><g transform="matrix(1.25926,0,0,1.25926,-1324.18,-1680.3)"><path d="M1090.98,1340.34l1.072,-0.094c0.051,0.43 0.169,0.782 0.354,1.058c0.186,0.275 0.474,0.498 0.865,0.668c0.39,0.17 0.83,0.255 1.318,0.255c0.434,0 0.816,-0.065 1.149,-0.194c0.332,-0.129 0.579,-0.305 0.741,-0.53c0.162,-0.225 0.243,-0.47 0.243,-0.735c0,-0.27 -0.078,-0.505 -0.234,-0.706c-0.157,-0.202 -0.415,-0.371 -0.774,-0.507c-0.23,-0.09 -0.74,-0.23 -1.529,-0.419c-0.789,-0.19 -1.342,-0.368 -1.658,-0.536c-0.411,-0.215 -0.716,-0.482 -0.917,-0.8c-0.202,-0.319 -0.302,-0.675 -0.302,-1.069c0,-0.434 0.123,-0.839 0.369,-1.216c0.246,-0.377 0.605,-0.663 1.078,-0.859c0.473,-0.195 0.998,-0.293 1.576,-0.293c0.637,0 1.199,0.103 1.685,0.308c0.486,0.205 0.86,0.507 1.122,0.905c0.262,0.399 0.402,0.85 0.422,1.354l-1.09,0.082c-0.059,-0.543 -0.257,-0.953 -0.595,-1.231c-0.338,-0.277 -0.837,-0.416 -1.497,-0.416c-0.687,0 -1.188,0.126 -1.503,0.378c-0.314,0.252 -0.471,0.556 -0.471,0.911c0,0.309 0.111,0.563 0.334,0.762c0.218,0.199 0.79,0.403 1.713,0.612c0.924,0.209 1.558,0.392 1.902,0.548c0.5,0.231 0.869,0.523 1.107,0.876c0.238,0.354 0.358,0.761 0.358,1.222c0,0.457 -0.131,0.888 -0.393,1.292c-0.262,0.404 -0.638,0.719 -1.128,0.943c-0.49,0.225 -1.042,0.337 -1.655,0.337c-0.778,0 -1.429,-0.113 -1.954,-0.34c-0.526,-0.226 -0.938,-0.567 -1.237,-1.022c-0.298,-0.455 -0.456,-0.97 -0.471,-1.544Z" style="fill:none;"/><path d="M1099.23,1345.48l0,-8.607l0.96,0l0,0.809c0.227,-0.317 0.483,-0.554 0.768,-0.712c0.285,-0.159 0.631,-0.238 1.037,-0.238c0.531,0 1,0.137 1.406,0.411c0.407,0.273 0.713,0.659 0.92,1.157c0.207,0.498 0.311,1.044 0.311,1.637c0,0.637 -0.114,1.21 -0.343,1.72c-0.228,0.51 -0.56,0.901 -0.996,1.172c-0.436,0.272 -0.894,0.407 -1.374,0.407c-0.352,0 -0.667,-0.074 -0.946,-0.222c-0.28,-0.149 -0.509,-0.336 -0.689,-0.563l0,3.029l-1.054,0Zm0.955,-5.461c0,0.801 0.162,1.393 0.486,1.776c0.324,0.383 0.717,0.574 1.178,0.574c0.468,0 0.87,-0.198 1.204,-0.595c0.334,-0.396 0.501,-1.01 0.501,-1.842c0,-0.793 -0.163,-1.387 -0.489,-1.782c-0.327,-0.394 -0.716,-0.591 -1.169,-0.591c-0.45,0 -0.847,0.21 -1.193,0.629c-0.346,0.42 -0.518,1.031 -0.518,1.831Z" style="fill:none;"/><path d="M1105.52,1339.98c0,-1.152 0.32,-2.006 0.961,-2.56c0.535,-0.461 1.187,-0.692 1.957,-0.692c0.855,0 1.554,0.281 2.097,0.841c0.543,0.561 0.815,1.335 0.815,2.323c0,0.801 -0.12,1.431 -0.36,1.89c-0.241,0.459 -0.59,0.816 -1.049,1.069c-0.459,0.254 -0.96,0.381 -1.503,0.381c-0.871,0 -1.575,-0.279 -2.113,-0.838c-0.537,-0.558 -0.805,-1.363 -0.805,-2.414Zm1.084,0c0,0.797 0.174,1.394 0.521,1.79c0.348,0.397 0.785,0.595 1.313,0.595c0.523,0 0.959,-0.199 1.306,-0.598c0.348,-0.398 0.522,-1.005 0.522,-1.822c0,-0.769 -0.175,-1.352 -0.525,-1.749c-0.349,-0.396 -0.784,-0.595 -1.303,-0.595c-0.528,0 -0.965,0.198 -1.313,0.592c-0.347,0.395 -0.521,0.99 -0.521,1.787Z" style="fill:none;"/><path d="M1112.58,1343.1l0,-6.223l0.949,0l0,0.885c0.457,-0.684 1.118,-1.026 1.981,-1.026c0.375,0 0.72,0.068 1.034,0.203c0.315,0.134 0.55,0.311 0.706,0.53c0.156,0.219 0.266,0.478 0.328,0.779c0.039,0.195 0.059,0.537 0.059,1.025l0,3.827l-1.055,0l0,-3.786c0,-0.429 -0.041,-0.75 -0.123,-0.963c-0.082,-0.213 -0.227,-0.383 -0.436,-0.51c-0.209,-0.127 -0.455,-0.191 -0.736,-0.191c-0.449,0 -0.837,0.143 -1.163,0.428c-0.326,0.285 -0.489,0.826 -0.489,1.623l0,3.399l-1.055,0Z" style="fill:none;"/><path d="M1118.83,1341.24l1.043,-0.164c0.059,0.418 0.222,0.738 0.489,0.961c0.268,0.223 0.642,0.334 1.122,0.334c0.485,0 0.844,-0.099 1.079,-0.296c0.234,-0.197 0.351,-0.429 0.351,-0.694c0,-0.238 -0.103,-0.426 -0.31,-0.563c-0.145,-0.093 -0.504,-0.213 -1.079,-0.357c-0.773,-0.195 -1.309,-0.364 -1.608,-0.507c-0.299,-0.142 -0.525,-0.34 -0.68,-0.592c-0.154,-0.252 -0.231,-0.53 -0.231,-0.835c0,-0.277 0.063,-0.534 0.19,-0.77c0.127,-0.236 0.3,-0.433 0.519,-0.589c0.164,-0.121 0.388,-0.224 0.671,-0.308c0.283,-0.084 0.587,-0.126 0.911,-0.126c0.488,0 0.917,0.071 1.286,0.211c0.369,0.141 0.642,0.331 0.817,0.572c0.176,0.24 0.297,0.561 0.364,0.963l-1.031,0.141c-0.047,-0.32 -0.183,-0.57 -0.408,-0.75c-0.224,-0.18 -0.542,-0.269 -0.952,-0.269c-0.484,0 -0.83,0.08 -1.037,0.24c-0.207,0.16 -0.311,0.347 -0.311,0.562c0,0.137 0.043,0.26 0.129,0.369c0.086,0.114 0.221,0.207 0.405,0.282c0.105,0.039 0.416,0.129 0.931,0.269c0.746,0.199 1.267,0.363 1.562,0.489c0.295,0.127 0.526,0.312 0.694,0.554c0.168,0.242 0.252,0.543 0.252,0.903c0,0.351 -0.102,0.682 -0.307,0.993c-0.206,0.31 -0.501,0.55 -0.888,0.72c-0.387,0.17 -0.824,0.255 -1.313,0.255c-0.808,0 -1.424,-0.168 -1.848,-0.504c-0.424,-0.336 -0.695,-0.834 -0.812,-1.494Z" style="fill:none;"/><path d="M1124.86,1339.98c0,-1.152 0.321,-2.006 0.961,-2.56c0.536,-0.461 1.188,-0.692 1.957,-0.692c0.856,0 1.555,0.281 2.098,0.841c0.543,0.561 0.815,1.335 0.815,2.323c0,0.801 -0.121,1.431 -0.361,1.89c-0.24,0.459 -0.59,0.816 -1.049,1.069c-0.459,0.254 -0.96,0.381 -1.503,0.381c-0.871,0 -1.575,-0.279 -2.112,-0.838c-0.537,-0.558 -0.806,-1.363 -0.806,-2.414Zm1.084,0c0,0.797 0.174,1.394 0.522,1.79c0.348,0.397 0.785,0.595 1.312,0.595c0.524,0 0.959,-0.199 1.307,-0.598c0.348,-0.398 0.522,-1.005 0.522,-1.822c0,-0.769 -0.175,-1.352 -0.525,-1.749c-0.349,-0.396 -0.784,-0.595 -1.304,-0.595c-0.527,0 -0.964,0.198 -1.312,0.592c-0.348,0.395 -0.522,0.99 -0.522,1.787Z" style="fill:none;"/><path d="M1131.92,1343.1l0,-6.223l0.949,0l0,0.943c0.243,-0.441 0.466,-0.732 0.671,-0.873c0.205,-0.14 0.431,-0.211 0.677,-0.211c0.355,0 0.717,0.114 1.084,0.34l-0.363,0.979c-0.258,-0.153 -0.516,-0.229 -0.774,-0.229c-0.23,0 -0.437,0.07 -0.621,0.208c-0.183,0.139 -0.314,0.331 -0.392,0.577c-0.118,0.375 -0.176,0.786 -0.176,1.231l0,3.258l-1.055,0Z" style="fill:none;"/><path d="M1140.18,1341.09l1.09,0.135c-0.172,0.636 -0.491,1.13 -0.956,1.482c-0.464,0.351 -1.058,0.527 -1.781,0.527c-0.91,0 -1.632,-0.28 -2.165,-0.841c-0.533,-0.56 -0.8,-1.346 -0.8,-2.358c0,-1.047 0.27,-1.859 0.809,-2.437c0.539,-0.579 1.238,-0.868 2.098,-0.868c0.832,0 1.511,0.284 2.039,0.85c0.527,0.566 0.791,1.363 0.791,2.391c0,0.062 -0.002,0.156 -0.006,0.281l-4.641,0c0.039,0.683 0.233,1.207 0.58,1.57c0.348,0.363 0.782,0.545 1.301,0.545c0.387,0 0.717,-0.101 0.99,-0.305c0.274,-0.203 0.491,-0.527 0.651,-0.972Zm-3.463,-1.705l3.474,0c-0.046,-0.524 -0.179,-0.916 -0.398,-1.178c-0.336,-0.406 -0.771,-0.609 -1.307,-0.609c-0.484,0 -0.891,0.162 -1.221,0.486c-0.33,0.324 -0.513,0.758 -0.548,1.301Z" style="fill:none;"/><path d="M1146.64,1343.1l0,-0.786c-0.395,0.618 -0.975,0.926 -1.74,0.926c-0.496,0 -0.952,-0.136 -1.368,-0.41c-0.417,-0.273 -0.739,-0.655 -0.967,-1.145c-0.229,-0.491 -0.343,-1.054 -0.343,-1.691c0,-0.621 0.103,-1.184 0.31,-1.69c0.208,-0.506 0.518,-0.894 0.932,-1.163c0.414,-0.27 0.877,-0.405 1.389,-0.405c0.375,0 0.709,0.079 1.002,0.238c0.293,0.158 0.531,0.364 0.715,0.618l0,-3.082l1.048,0l0,8.59l-0.978,0Zm-3.334,-3.106c0,0.797 0.168,1.393 0.504,1.787c0.336,0.395 0.732,0.592 1.189,0.592c0.461,0 0.853,-0.188 1.175,-0.565c0.322,-0.377 0.483,-0.952 0.483,-1.726c0,-0.851 -0.164,-1.476 -0.492,-1.875c-0.328,-0.398 -0.732,-0.598 -1.213,-0.598c-0.468,0 -0.86,0.192 -1.174,0.575c-0.315,0.382 -0.472,0.986 -0.472,1.81Z" style="fill:none;"/><path d="M1153.58,1343.1l-0.978,0l0,-8.59l1.054,0l0,3.064c0.446,-0.558 1.014,-0.838 1.706,-0.838c0.382,0 0.745,0.078 1.086,0.232c0.342,0.154 0.623,0.371 0.844,0.65c0.221,0.28 0.394,0.616 0.519,1.011c0.125,0.394 0.187,0.816 0.187,1.266c0,1.066 -0.263,1.89 -0.791,2.472c-0.527,0.582 -1.16,0.873 -1.898,0.873c-0.735,0 -1.311,-0.306 -1.729,-0.92l0,0.78Zm-0.011,-3.159c0,0.747 0.101,1.286 0.304,1.618c0.332,0.543 0.781,0.814 1.348,0.814c0.461,0 0.859,-0.2 1.195,-0.6c0.336,-0.401 0.504,-0.998 0.504,-1.791c0,-0.812 -0.161,-1.412 -0.483,-1.798c-0.323,-0.387 -0.712,-0.58 -1.169,-0.58c-0.461,0 -0.86,0.2 -1.196,0.6c-0.335,0.401 -0.503,0.98 -0.503,1.737Z" style="fill:none;"/><path d="M1159.23,1345.49l-0.118,-0.99c0.231,0.062 0.432,0.094 0.604,0.094c0.234,0 0.422,-0.039 0.562,-0.118c0.141,-0.078 0.256,-0.187 0.346,-0.328c0.066,-0.105 0.174,-0.367 0.322,-0.785c0.02,-0.058 0.051,-0.144 0.094,-0.258l-2.361,-6.234l1.136,0l1.295,3.604c0.168,0.457 0.319,0.937 0.452,1.441c0.121,-0.484 0.265,-0.957 0.433,-1.418l1.33,-3.627l1.055,0l-2.367,6.328c-0.254,0.684 -0.451,1.154 -0.592,1.412c-0.188,0.348 -0.402,0.603 -0.645,0.765c-0.242,0.162 -0.531,0.243 -0.867,0.243c-0.203,0 -0.429,-0.043 -0.679,-0.129Z" style="fill:none;"/><path d="M1090.98,1340.34l1.072,-0.094c0.051,0.43 0.169,0.782 0.354,1.058c0.186,0.275 0.474,0.498 0.865,0.668c0.39,0.17 0.83,0.255 1.318,0.255c0.434,0 0.816,-0.065 1.149,-0.194c0.332,-0.129 0.579,-0.305 0.741,-0.53c0.162,-0.225 0.243,-0.47 0.243,-0.735c0,-0.27 -0.078,-0.505 -0.234,-0.706c-0.157,-0.202 -0.415,-0.371 -0.774,-0.507c-0.23,-0.09 -0.74,-0.23 -1.529,-0.419c-0.789,-0.19 -1.342,-0.368 -1.658,-0.536c-0.411,-0.215 -0.716,-0.482 -0.917,-0.8c-0.202,-0.319 -0.302,-0.675 -0.302,-1.069c0,-0.434 0.123,-0.839 0.369,-1.216c0.246,-0.377 0.605,-0.663 1.078,-0.859c0.473,-0.195 0.998,-0.293 1.576,-0.293c0.637,0 1.199,0.103 1.685,0.308c0.486,0.205 0.86,0.507 1.122,0.905c0.262,0.399 0.402,0.85 0.422,1.354l-1.09,0.082c-0.059,-0.543 -0.257,-0.953 -0.595,-1.231c-0.338,-0.277 -0.837,-0.416 -1.497,-0.416c-0.687,0 -1.188,0.126 -1.503,0.378c-0.314,0.252 -0.471,0.556 -0.471,0.911c0,0.309 0.111,0.563 0.334,0.762c0.218,0.199 0.79,0.403 1.713,0.612c0.924,0.209 1.558,0.392 1.902,0.548c0.5,0.231 0.869,0.523 1.107,0.876c0.238,0.354 0.358,0.761 0.358,1.222c0,0.457 -0.131,0.888 -0.393,1.292c-0.262,0.404 -0.638,0.719 -1.128,0.943c-0.49,0.225 -1.042,0.337 -1.655,0.337c-0.778,0 -1.429,-0.113 -1.954,-0.34c-0.526,-0.226 -0.938,-0.567 -1.237,-1.022c-0.298,-0.455 -0.456,-0.97 -0.471,-1.544Z" style="fill:#385958;fill-rule:nonzero;"/><path d="M1099.23,1345.48l0,-8.607l0.96,0l0,0.809c0.227,-0.317 0.483,-0.554 0.768,-0.712c0.285,-0.159 0.631,-0.238 1.037,-0.238c0.531,0 1,0.137 1.406,0.411c0.407,0.273 0.713,0.659 0.92,1.157c0.207,0.498 0.311,1.044 0.311,1.637c0,0.637 -0.114,1.21 -0.343,1.72c-0.228,0.51 -0.56,0.901 -0.996,1.172c-0.436,0.272 -0.894,0.407 -1.374,0.407c-0.352,0 -0.667,-0.074 -0.946,-0.222c-0.28,-0.149 -0.509,-0.336 -0.689,-0.563l0,3.029l-1.054,0Zm0.955,-5.461c0,0.801 0.162,1.393 0.486,1.776c0.324,0.383 0.717,0.574 1.178,0.574c0.468,0 0.87,-0.198 1.204,-0.595c0.334,-0.396 0.501,-1.01 0.501,-1.842c0,-0.793 -0.163,-1.387 -0.489,-1.782c-0.327,-0.394 -0.716,-0.591 -1.169,-0.591c-0.45,0 -0.847,0.21 -1.193,0.629c-0.346,0.42 -0.518,1.031 -0.518,1.831Z" style="fill:#385958;fill-rule:nonzero;"/><path d="M1105.52,1339.98c0,-1.152 0.32,-2.006 0.961,-2.56c0.535,-0.461 1.187,-0.692 1.957,-0.692c0.855,0 1.554,0.281 2.097,0.841c0.543,0.561 0.815,1.335 0.815,2.323c0,0.801 -0.12,1.431 -0.36,1.89c-0.241,0.459 -0.59,0.816 -1.049,1.069c-0.459,0.254 -0.96,0.381 -1.503,0.381c-0.871,0 -1.575,-0.279 -2.113,-0.838c-0.537,-0.558 -0.805,-1.363 -0.805,-2.414Zm1.084,0c0,0.797 0.174,1.394 0.521,1.79c0.348,0.397 0.785,0.595 1.313,0.595c0.523,0 0.959,-0.199 1.306,-0.598c0.348,-0.398 0.522,-1.005 0.522,-1.822c0,-0.769 -0.175,-1.352 -0.525,-1.749c-0.349,-0.396 -0.784,-0.595 -1.303,-0.595c-0.528,0 -0.965,0.198 -1.313,0.592c-0.347,0.395 -0.521,0.99 -0.521,1.787Z" style="fill:#385958;fill-rule:nonzero;"/><path d="M1112.58,1343.1l0,-6.223l0.949,0l0,0.885c0.457,-0.684 1.118,-1.026 1.981,-1.026c0.375,0 0.72,0.068 1.034,0.203c0.315,0.134 0.55,0.311 0.706,0.53c0.156,0.219 0.266,0.478 0.328,0.779c0.039,0.195 0.059,0.537 0.059,1.025l0,3.827l-1.055,0l0,-3.786c0,-0.429 -0.041,-0.75 -0.123,-0.963c-0.082,-0.213 -0.227,-0.383 -0.436,-0.51c-0.209,-0.127 -0.455,-0.191 -0.736,-0.191c-0.449,0 -0.837,0.143 -1.163,0.428c-0.326,0.285 -0.489,0.826 -0.489,1.623l0,3.399l-1.055,0Z" style="fill:#385958;fill-rule:nonzero;"/><path d="M1118.83,1341.24l1.043,-0.164c0.059,0.418 0.222,0.738 0.489,0.961c0.268,0.223 0.642,0.334 1.122,0.334c0.485,0 0.844,-0.099 1.079,-0.296c0.234,-0.197 0.351,-0.429 0.351,-0.694c0,-0.238 -0.103,-0.426 -0.31,-0.563c-0.145,-0.093 -0.504,-0.213 -1.079,-0.357c-0.773,-0.195 -1.309,-0.364 -1.608,-0.507c-0.299,-0.142 -0.525,-0.34 -0.68,-0.592c-0.154,-0.252 -0.231,-0.53 -0.231,-0.835c0,-0.277 0.063,-0.534 0.19,-0.77c0.127,-0.236 0.3,-0.433 0.519,-0.589c0.164,-0.121 0.388,-0.224 0.671,-0.308c0.283,-0.084 0.587,-0.126 0.911,-0.126c0.488,0 0.917,0.071 1.286,0.211c0.369,0.141 0.642,0.331 0.817,0.572c0.176,0.24 0.297,0.561 0.364,0.963l-1.031,0.141c-0.047,-0.32 -0.183,-0.57 -0.408,-0.75c-0.224,-0.18 -0.542,-0.269 -0.952,-0.269c-0.484,0 -0.83,0.08 -1.037,0.24c-0.207,0.16 -0.311,0.347 -0.311,0.562c0,0.137 0.043,0.26 0.129,0.369c0.086,0.114 0.221,0.207 0.405,0.282c0.105,0.039 0.416,0.129 0.931,0.269c0.746,0.199 1.267,0.363 1.562,0.489c0.295,0.127 0.526,0.312 0.694,0.554c0.168,0.242 0.252,0.543 0.252,0.903c0,0.351 -0.102,0.682 -0.307,0.993c-0.206,0.31 -0.501,0.55 -0.888,0.72c-0.387,0.17 -0.824,0.255 -1.313,0.255c-0.808,0 -1.424,-0.168 -1.848,-0.504c-0.424,-0.336 -0.695,-0.834 -0.812,-1.494Z" style="fill:#385958;fill-rule:nonzero;"/><path d="M1124.86,1339.98c0,-1.152 0.321,-2.006 0.961,-2.56c0.536,-0.461 1.188,-0.692 1.957,-0.692c0.856,0 1.555,0.281 2.098,0.841c0.543,0.561 0.815,1.335 0.815,2.323c0,0.801 -0.121,1.431 -0.361,1.89c-0.24,0.459 -0.59,0.816 -1.049,1.069c-0.459,0.254 -0.96,0.381 -1.503,0.381c-0.871,0 -1.575,-0.279 -2.112,-0.838c-0.537,-0.558 -0.806,-1.363 -0.806,-2.414Zm1.084,0c0,0.797 0.174,1.394 0.522,1.79c0.348,0.397 0.785,0.595 1.312,0.595c0.524,0 0.959,-0.199 1.307,-0.598c0.348,-0.398 0.522,-1.005 0.522,-1.822c0,-0.769 -0.175,-1.352 -0.525,-1.749c-0.349,-0.396 -0.784,-0.595 -1.304,-0.595c-0.527,0 -0.964,0.198 -1.312,0.592c-0.348,0.395 -0.522,0.99 -0.522,1.787Z" style="fill:#385958;fill-rule:nonzero;"/><path d="M1131.92,1343.1l0,-6.223l0.949,0l0,0.943c0.243,-0.441 0.466,-0.732 0.671,-0.873c0.205,-0.14 0.431,-0.211 0.677,-0.211c0.355,0 0.717,0.114 1.084,0.34l-0.363,0.979c-0.258,-0.153 -0.516,-0.229 -0.774,-0.229c-0.23,0 -0.437,0.07 -0.621,0.208c-0.183,0.139 -0.314,0.331 -0.392,0.577c-0.118,0.375 -0.176,0.786 -0.176,1.231l0,3.258l-1.055,0Z" style="fill:#385958;fill-rule:nonzero;"/><path d="M1140.18,1341.09l1.09,0.135c-0.172,0.636 -0.491,1.13 -0.956,1.482c-0.464,0.351 -1.058,0.527 -1.781,0.527c-0.91,0 -1.632,-0.28 -2.165,-0.841c-0.533,-0.56 -0.8,-1.346 -0.8,-2.358c0,-1.047 0.27,-1.859 0.809,-2.437c0.539,-0.579 1.238,-0.868 2.098,-0.868c0.832,0 1.511,0.284 2.039,0.85c0.527,0.566 0.791,1.363 0.791,2.391c0,0.062 -0.002,0.156 -0.006,0.281l-4.641,0c0.039,0.683 0.233,1.207 0.58,1.57c0.348,0.363 0.782,0.545 1.301,0.545c0.387,0 0.717,-0.101 0.99,-0.305c0.274,-0.203 0.491,-0.527 0.651,-0.972Zm-3.463,-1.705l3.474,0c-0.046,-0.524 -0.179,-0.916 -0.398,-1.178c-0.336,-0.406 -0.771,-0.609 -1.307,-0.609c-0.484,0 -0.891,0.162 -1.221,0.486c-0.33,0.324 -0.513,0.758 -0.548,1.301Z" style="fill:#385958;fill-rule:nonzero;"/><path d="M1146.64,1343.1l0,-0.786c-0.395,0.618 -0.975,0.926 -1.74,0.926c-0.496,0 -0.952,-0.136 -1.368,-0.41c-0.417,-0.273 -0.739,-0.655 -0.967,-1.145c-0.229,-0.491 -0.343,-1.054 -0.343,-1.691c0,-0.621 0.103,-1.184 0.31,-1.69c0.208,-0.506 0.518,-0.894 0.932,-1.163c0.414,-0.27 0.877,-0.405 1.389,-0.405c0.375,0 0.709,0.079 1.002,0.238c0.293,0.158 0.531,0.364 0.715,0.618l0,-3.082l1.048,0l0,8.59l-0.978,0Zm-3.334,-3.106c0,0.797 0.168,1.393 0.504,1.787c0.336,0.395 0.732,0.592 1.189,0.592c0.461,0 0.853,-0.188 1.175,-0.565c0.322,-0.377 0.483,-0.952 0.483,-1.726c0,-0.851 -0.164,-1.476 -0.492,-1.875c-0.328,-0.398 -0.732,-0.598 -1.213,-0.598c-0.468,0 -0.86,0.192 -1.174,0.575c-0.315,0.382 -0.472,0.986 -0.472,1.81Z" style="fill:#385958;fill-rule:nonzero;"/><path d="M1153.58,1343.1l-0.978,0l0,-8.59l1.054,0l0,3.064c0.446,-0.558 1.014,-0.838 1.706,-0.838c0.382,0 0.745,0.078 1.086,0.232c0.342,0.154 0.623,0.371 0.844,0.65c0.221,0.28 0.394,0.616 0.519,1.011c0.125,0.394 0.187,0.816 0.187,1.266c0,1.066 -0.263,1.89 -0.791,2.472c-0.527,0.582 -1.16,0.873 -1.898,0.873c-0.735,0 -1.311,-0.306 -1.729,-0.92l0,0.78Zm-0.011,-3.159c0,0.747 0.101,1.286 0.304,1.618c0.332,0.543 0.781,0.814 1.348,0.814c0.461,0 0.859,-0.2 1.195,-0.6c0.336,-0.401 0.504,-0.998 0.504,-1.791c0,-0.812 -0.161,-1.412 -0.483,-1.798c-0.323,-0.387 -0.712,-0.58 -1.169,-0.58c-0.461,0 -0.86,0.2 -1.196,0.6c-0.335,0.401 -0.503,0.98 -0.503,1.737Z" style="fill:#385958;fill-rule:nonzero;"/><path d="M1159.23,1345.49l-0.118,-0.99c0.231,0.062 0.432,0.094 0.604,0.094c0.234,0 0.422,-0.039 0.562,-0.118c0.141,-0.078 0.256,-0.187 0.346,-0.328c0.066,-0.105 0.174,-0.367 0.322,-0.785c0.02,-0.058 0.051,-0.144 0.094,-0.258l-2.361,-6.234l1.136,0l1.295,3.604c0.168,0.457 0.319,0.937 0.452,1.441c0.121,-0.484 0.265,-0.957 0.433,-1.418l1.33,-3.627l1.055,0l-2.367,6.328c-0.254,0.684 -0.451,1.154 -0.592,1.412c-0.188,0.348 -0.402,0.603 -0.645,0.765c-0.242,0.162 -0.531,0.243 -0.867,0.243c-0.203,0 -0.429,-0.043 -0.679,-0.129Z" style="fill:#385958;fill-rule:nonzero;"/></g><rect x="9.498" y="189.138" width="1.923" height="9.523" style="fill:#385958;fill-rule:nonzero;"/><path d="M17.429,196.381c0.018,-0.117 0.034,-0.224 0.049,-0.321c0.015,-0.098 0.034,-0.198 0.055,-0.302c0.022,-0.104 0.048,-0.216 0.078,-0.335c0.031,-0.119 0.07,-0.259 0.117,-0.419l1.196,-3.735l2.611,0l0,7.392l-1.702,0l0,-5.333l-0.026,0l-1.663,5.333l-1.475,0l-1.669,-5.333l-0.026,0l0,5.333l-1.702,0l0,-7.392l2.611,0l1.209,3.761c0.043,0.156 0.08,0.294 0.11,0.413c0.03,0.119 0.056,0.229 0.078,0.331c0.022,0.102 0.041,0.201 0.059,0.299c0.017,0.097 0.036,0.2 0.058,0.308l0.032,0Z" style="fill:#385958;fill-rule:nonzero;"/><path d="M23.51,198.661l0,-7.392l2.604,0c0.455,0 0.847,0.008 1.176,0.023c0.329,0.015 0.617,0.066 0.864,0.152c0.212,0.078 0.407,0.185 0.585,0.319c0.177,0.134 0.329,0.292 0.454,0.474c0.126,0.182 0.223,0.383 0.293,0.604c0.069,0.221 0.104,0.453 0.104,0.695c0,0.368 -0.056,0.689 -0.166,0.961c-0.111,0.273 -0.252,0.506 -0.426,0.699c-0.173,0.192 -0.367,0.344 -0.581,0.454c-0.214,0.111 -0.425,0.188 -0.633,0.231c-0.191,0.039 -0.419,0.066 -0.686,0.081c-0.266,0.015 -0.57,0.023 -0.912,0.023l-0.806,0l0,2.676l-1.87,0Zm1.87,-5.898l0,1.728l0.643,0c0.572,0 0.947,-0.035 1.124,-0.104c0.165,-0.069 0.294,-0.173 0.387,-0.312c0.093,-0.138 0.139,-0.29 0.139,-0.454c0,-0.213 -0.066,-0.392 -0.198,-0.54c-0.132,-0.147 -0.3,-0.238 -0.503,-0.272c-0.087,-0.013 -0.217,-0.024 -0.39,-0.033c-0.173,-0.009 -0.39,-0.013 -0.65,-0.013l-0.552,0Z" style="fill:#385958;fill-rule:nonzero;"/><path d="M31.071,198.661l0,-7.392l3.351,0c0.42,0 0.779,0.016 1.075,0.049c0.297,0.032 0.55,0.085 0.76,0.159c0.21,0.074 0.387,0.17 0.53,0.289c0.143,0.119 0.275,0.265 0.396,0.438c0.117,0.174 0.205,0.362 0.263,0.566c0.059,0.203 0.088,0.415 0.088,0.636c0,0.195 -0.023,0.396 -0.068,0.604c-0.046,0.208 -0.135,0.406 -0.267,0.595c-0.132,0.188 -0.318,0.361 -0.558,0.519c-0.241,0.158 -0.556,0.287 -0.945,0.387l0,0.026c0.238,0.091 0.47,0.244 0.698,0.461c0.227,0.217 0.451,0.492 0.672,0.825l1.208,1.838l-2.221,0l-1.059,-1.611c-0.221,-0.337 -0.42,-0.603 -0.598,-0.795c-0.177,-0.193 -0.322,-0.324 -0.435,-0.393c-0.06,-0.035 -0.12,-0.062 -0.178,-0.082c-0.059,-0.019 -0.123,-0.034 -0.192,-0.045c-0.069,-0.011 -0.146,-0.018 -0.231,-0.023c-0.084,-0.004 -0.183,-0.006 -0.295,-0.006l-0.124,0l0,2.955l-1.87,0Zm2.806,-4.41c0.307,0 0.554,-0.004 0.74,-0.01c0.186,-0.007 0.336,-0.019 0.448,-0.036c0.191,-0.03 0.331,-0.112 0.419,-0.247c0.089,-0.134 0.134,-0.288 0.134,-0.461c0,-0.19 -0.056,-0.346 -0.166,-0.468c-0.11,-0.121 -0.259,-0.194 -0.445,-0.22c-0.069,-0.009 -0.195,-0.016 -0.377,-0.02c-0.182,-0.004 -0.413,-0.006 -0.695,-0.006l-0.994,0l0,1.468l0.936,0Z" style="fill:#385958;fill-rule:nonzero;"/><path d="M38.93,195.004c0,-0.61 0.088,-1.155 0.264,-1.634c0.175,-0.478 0.426,-0.882 0.753,-1.211c0.327,-0.329 0.724,-0.58 1.192,-0.754c0.468,-0.173 0.994,-0.259 1.578,-0.259c0.581,0 1.106,0.088 1.576,0.266c0.47,0.178 0.87,0.432 1.201,0.763c0.332,0.332 0.587,0.733 0.767,1.205c0.18,0.472 0.269,1.003 0.269,1.592c0,0.593 -0.089,1.125 -0.269,1.594c-0.18,0.47 -0.435,0.869 -0.767,1.196c-0.331,0.327 -0.729,0.578 -1.195,0.753c-0.465,0.175 -0.984,0.263 -1.556,0.263c-0.584,0 -1.111,-0.088 -1.581,-0.263c-0.47,-0.175 -0.871,-0.426 -1.202,-0.753c-0.331,-0.327 -0.586,-0.724 -0.763,-1.189c-0.178,-0.466 -0.267,-0.989 -0.267,-1.569Zm1.917,-0.045c0,0.385 0.048,0.721 0.146,1.007c0.097,0.285 0.23,0.522 0.399,0.711c0.169,0.188 0.368,0.329 0.598,0.422c0.229,0.093 0.478,0.14 0.747,0.14c0.268,0 0.516,-0.047 0.744,-0.14c0.227,-0.093 0.424,-0.234 0.591,-0.422c0.167,-0.189 0.298,-0.427 0.393,-0.715c0.095,-0.288 0.143,-0.629 0.143,-1.023c0,-0.385 -0.046,-0.72 -0.137,-1.003c-0.091,-0.284 -0.217,-0.518 -0.38,-0.702c-0.162,-0.184 -0.359,-0.32 -0.591,-0.409c-0.231,-0.089 -0.486,-0.133 -0.763,-0.133c-0.273,0 -0.525,0.043 -0.757,0.13c-0.231,0.086 -0.431,0.223 -0.597,0.409c-0.167,0.186 -0.298,0.422 -0.393,0.708c-0.096,0.286 -0.143,0.626 -0.143,1.02Z" style="fill:#385958;fill-rule:nonzero;"/><path d="M50.98,196.284c0.022,-0.121 0.042,-0.229 0.062,-0.322c0.019,-0.093 0.043,-0.188 0.071,-0.286c0.028,-0.097 0.062,-0.203 0.101,-0.318c0.039,-0.115 0.089,-0.254 0.149,-0.419l1.299,-3.67l1.982,0l-2.884,7.392l-1.696,0l-2.871,-7.392l2.02,0l1.345,3.709c0.06,0.16 0.11,0.298 0.149,0.413c0.039,0.114 0.074,0.218 0.104,0.311c0.031,0.094 0.056,0.186 0.078,0.277c0.022,0.09 0.046,0.192 0.072,0.305l0.019,0Z" style="fill:#385958;fill-rule:nonzero;"/><path d="M55.715,198.661l0,-7.392l5.899,0l0,1.514l-4.028,0l0,1.247l3.748,0l0,1.513l-3.748,0l0,1.605l4.171,0l0,1.513l-6.042,0Z" style="fill:#385958;fill-rule:nonzero;"/><path d="M63.238,191.269l2.936,0c0.311,0 0.593,0.011 0.844,0.033c0.251,0.021 0.461,0.056 0.63,0.103c0.355,0.1 0.67,0.256 0.945,0.468c0.275,0.212 0.506,0.473 0.692,0.783c0.186,0.31 0.328,0.665 0.426,1.065c0.097,0.401 0.146,0.837 0.146,1.309c0,0.654 -0.099,1.219 -0.296,1.696c-0.197,0.476 -0.46,0.87 -0.789,1.182c-0.117,0.112 -0.253,0.214 -0.409,0.305c-0.156,0.091 -0.337,0.17 -0.543,0.237c-0.205,0.067 -0.437,0.119 -0.695,0.156c-0.257,0.037 -0.546,0.055 -0.867,0.055l-3.02,0l0,-7.392Zm1.87,1.514l0,4.365l0.949,0c0.316,0 0.575,-0.019 0.776,-0.055c0.201,-0.037 0.364,-0.094 0.487,-0.169c0.124,-0.076 0.22,-0.172 0.289,-0.289c0.07,-0.117 0.13,-0.254 0.182,-0.41c0.095,-0.29 0.143,-0.71 0.143,-1.26c0,-0.381 -0.025,-0.698 -0.075,-0.951c-0.049,-0.254 -0.123,-0.461 -0.221,-0.621c-0.097,-0.16 -0.216,-0.281 -0.357,-0.364c-0.141,-0.082 -0.302,-0.142 -0.484,-0.181c-0.099,-0.022 -0.248,-0.038 -0.445,-0.049c-0.197,-0.011 -0.445,-0.016 -0.743,-0.016l-0.501,0Z" style="fill:#385958;fill-rule:nonzero;"/><path d="M78.431,193.958c0,0.533 -0.187,0.987 -0.562,1.361c-0.374,0.375 -0.826,0.562 -1.354,0.562c-0.533,0 -0.986,-0.188 -1.361,-0.565c-0.375,-0.377 -0.562,-0.829 -0.562,-1.358c0,-0.528 0.187,-0.979 0.562,-1.354c0.375,-0.375 0.828,-0.562 1.361,-0.562c0.528,0 0.98,0.186 1.354,0.559c0.375,0.372 0.562,0.825 0.562,1.357Z" style="fill:#385958;fill-rule:nonzero;"/><path d="M83.485,198.661l0,-9.523l3.085,0c1.17,0 1.932,0.048 2.287,0.143c0.546,0.143 1.002,0.454 1.37,0.933c0.369,0.478 0.553,1.096 0.553,1.854c0,0.585 -0.106,1.076 -0.319,1.475c-0.212,0.398 -0.481,0.711 -0.808,0.938c-0.327,0.228 -0.66,0.378 -0.998,0.452c-0.459,0.091 -1.123,0.136 -1.994,0.136l-1.253,0l0,3.592l-1.923,0Zm1.923,-7.912l0,2.703l1.052,0c0.758,0 1.264,-0.05 1.52,-0.15c0.255,-0.099 0.456,-0.255 0.601,-0.467c0.145,-0.213 0.217,-0.459 0.217,-0.741c0,-0.346 -0.101,-0.632 -0.305,-0.857c-0.203,-0.226 -0.461,-0.366 -0.773,-0.423c-0.229,-0.043 -0.691,-0.065 -1.383,-0.065l-0.929,0Z" style="fill:#385958;fill-rule:nonzero;"/><path d="M92.378,198.661l0,-7.392l3.351,0c0.42,0 0.779,0.016 1.075,0.049c0.297,0.032 0.55,0.085 0.76,0.159c0.21,0.074 0.387,0.17 0.53,0.289c0.143,0.119 0.275,0.265 0.396,0.438c0.117,0.174 0.205,0.362 0.263,0.566c0.059,0.203 0.088,0.415 0.088,0.636c0,0.195 -0.023,0.396 -0.068,0.604c-0.046,0.208 -0.135,0.406 -0.267,0.595c-0.132,0.188 -0.318,0.361 -0.558,0.519c-0.241,0.158 -0.556,0.287 -0.945,0.387l0,0.026c0.238,0.091 0.47,0.244 0.698,0.461c0.227,0.217 0.451,0.492 0.672,0.825l1.208,1.838l-2.221,0l-1.059,-1.611c-0.221,-0.337 -0.42,-0.603 -0.598,-0.795c-0.177,-0.193 -0.322,-0.324 -0.435,-0.393c-0.06,-0.035 -0.12,-0.062 -0.178,-0.082c-0.059,-0.019 -0.123,-0.034 -0.192,-0.045c-0.069,-0.011 -0.146,-0.018 -0.231,-0.023c-0.084,-0.004 -0.183,-0.006 -0.295,-0.006l-0.124,0l0,2.955l-1.87,0Zm2.806,-4.41c0.307,0 0.554,-0.004 0.74,-0.01c0.186,-0.007 0.336,-0.019 0.448,-0.036c0.191,-0.03 0.331,-0.112 0.419,-0.247c0.089,-0.134 0.134,-0.288 0.134,-0.461c0,-0.19 -0.056,-0.346 -0.166,-0.468c-0.11,-0.121 -0.259,-0.194 -0.445,-0.22c-0.069,-0.009 -0.195,-0.016 -0.377,-0.02c-0.182,-0.004 -0.413,-0.006 -0.695,-0.006l-0.994,0l0,1.468l0.936,0Z" style="fill:#385958;fill-rule:nonzero;"/><path d="M100.627,198.661l0,-7.392l5.898,0l0,1.514l-4.027,0l0,1.247l3.748,0l0,1.513l-3.748,0l0,1.605l4.17,0l0,1.513l-6.041,0Z" style="fill:#385958;fill-rule:nonzero;"/><rect x="107.909" y="194.296" width="3.586" height="1.825" style="fill:#385958;fill-rule:nonzero;"/><path d="M119.595,198.661l-2.027,0l-0.474,-1.188l-3.066,0l-0.455,1.188l-1.981,0l3.105,-7.392l1.708,0l3.19,7.392Zm-4.073,-5.404c-0.022,0.121 -0.044,0.228 -0.068,0.321c-0.024,0.093 -0.051,0.189 -0.081,0.286c-0.031,0.098 -0.066,0.204 -0.108,0.318c-0.041,0.115 -0.094,0.255 -0.159,0.419l-0.487,1.358l1.864,0l-0.513,-1.397c-0.065,-0.16 -0.118,-0.297 -0.159,-0.412c-0.041,-0.115 -0.077,-0.219 -0.107,-0.312c-0.03,-0.093 -0.058,-0.185 -0.081,-0.276c-0.024,-0.091 -0.049,-0.193 -0.075,-0.305l-0.026,0Z" style="fill:#385958;fill-rule:nonzero;"/><path d="M121.907,196.082c0.104,0.408 0.274,0.714 0.51,0.92c0.236,0.205 0.545,0.308 0.926,0.308c0.173,0 0.338,-0.015 0.494,-0.045c0.155,-0.031 0.292,-0.079 0.409,-0.146c0.117,-0.068 0.21,-0.154 0.279,-0.26c0.069,-0.106 0.104,-0.233 0.104,-0.38c0,-0.143 -0.045,-0.267 -0.136,-0.371c-0.091,-0.104 -0.241,-0.188 -0.449,-0.253c-0.086,-0.03 -0.227,-0.069 -0.422,-0.117c-0.195,-0.047 -0.448,-0.108 -0.76,-0.182c-0.394,-0.095 -0.747,-0.206 -1.059,-0.334c-0.311,-0.128 -0.55,-0.261 -0.714,-0.4c-0.503,-0.424 -0.754,-0.939 -0.754,-1.546c0,-0.294 0.063,-0.571 0.189,-0.831c0.125,-0.26 0.312,-0.486 0.558,-0.679c0.247,-0.193 0.551,-0.344 0.913,-0.455c0.362,-0.11 0.776,-0.165 1.244,-0.165c0.918,0 1.635,0.179 2.15,0.539c0.515,0.359 0.81,0.918 0.883,1.676l-1.877,0.078c-0.073,-0.282 -0.201,-0.492 -0.383,-0.63c-0.182,-0.139 -0.444,-0.208 -0.786,-0.208c-0.346,0 -0.614,0.052 -0.802,0.156c-0.189,0.104 -0.283,0.246 -0.283,0.428c0,0.083 0.023,0.155 0.068,0.218c0.046,0.063 0.125,0.122 0.237,0.179c0.113,0.056 0.264,0.111 0.452,0.165c0.188,0.054 0.425,0.114 0.711,0.179c0.373,0.086 0.697,0.174 0.975,0.263c0.277,0.089 0.506,0.179 0.688,0.27c0.373,0.19 0.67,0.45 0.893,0.779c0.223,0.329 0.335,0.73 0.335,1.202c0,0.212 -0.034,0.421 -0.101,0.627c-0.067,0.205 -0.163,0.4 -0.289,0.584c-0.126,0.184 -0.28,0.35 -0.464,0.497c-0.184,0.147 -0.393,0.269 -0.627,0.364c-0.455,0.182 -1.018,0.273 -1.689,0.273c-0.966,0 -1.714,-0.209 -2.244,-0.627c-0.531,-0.418 -0.868,-1.056 -1.011,-1.913l1.832,-0.163Z" style="fill:#385958;fill-rule:nonzero;"/><path d="M129.358,196.082c0.104,0.408 0.274,0.714 0.51,0.92c0.236,0.205 0.544,0.308 0.926,0.308c0.173,0 0.337,-0.015 0.493,-0.045c0.156,-0.031 0.292,-0.079 0.409,-0.146c0.117,-0.068 0.21,-0.154 0.28,-0.26c0.069,-0.106 0.104,-0.233 0.104,-0.38c0,-0.143 -0.046,-0.267 -0.137,-0.371c-0.091,-0.104 -0.24,-0.188 -0.448,-0.253c-0.087,-0.03 -0.227,-0.069 -0.422,-0.117c-0.195,-0.047 -0.448,-0.108 -0.76,-0.182c-0.394,-0.095 -0.747,-0.206 -1.059,-0.334c-0.312,-0.128 -0.55,-0.261 -0.715,-0.4c-0.502,-0.424 -0.753,-0.939 -0.753,-1.546c0,-0.294 0.063,-0.571 0.188,-0.831c0.126,-0.26 0.312,-0.486 0.559,-0.679c0.247,-0.193 0.551,-0.344 0.913,-0.455c0.361,-0.11 0.776,-0.165 1.244,-0.165c0.918,0 1.634,0.179 2.15,0.539c0.515,0.359 0.809,0.918 0.883,1.676l-1.877,0.078c-0.074,-0.282 -0.202,-0.492 -0.383,-0.63c-0.182,-0.139 -0.444,-0.208 -0.786,-0.208c-0.347,0 -0.614,0.052 -0.803,0.156c-0.188,0.104 -0.282,0.246 -0.282,0.428c0,0.083 0.023,0.155 0.068,0.218c0.045,0.063 0.124,0.122 0.237,0.179c0.113,0.056 0.263,0.111 0.452,0.165c0.188,0.054 0.425,0.114 0.711,0.179c0.372,0.086 0.697,0.174 0.974,0.263c0.277,0.089 0.507,0.179 0.689,0.27c0.372,0.19 0.67,0.45 0.893,0.779c0.223,0.329 0.334,0.73 0.334,1.202c0,0.212 -0.033,0.421 -0.1,0.627c-0.067,0.205 -0.164,0.4 -0.289,0.584c-0.126,0.184 -0.281,0.35 -0.465,0.497c-0.184,0.147 -0.393,0.269 -0.627,0.364c-0.454,0.182 -1.017,0.273 -1.688,0.273c-0.966,0 -1.714,-0.209 -2.245,-0.627c-0.53,-0.418 -0.867,-1.056 -1.01,-1.913l1.832,-0.163Z" style="fill:#385958;fill-rule:nonzero;"/><path d="M135.483,198.661l0,-7.392l5.899,0l0,1.514l-4.028,0l0,1.247l3.748,0l0,1.513l-3.748,0l0,1.605l4.171,0l0,1.513l-6.042,0Z" style="fill:#385958;fill-rule:nonzero;"/><path d="M147.163,196.381c0.017,-0.117 0.033,-0.224 0.049,-0.321c0.015,-0.098 0.033,-0.198 0.055,-0.302c0.021,-0.104 0.047,-0.216 0.078,-0.335c0.03,-0.119 0.069,-0.259 0.117,-0.419l1.195,-3.735l2.611,0l0,7.392l-1.702,0l0,-5.333l-0.026,0l-1.663,5.333l-1.474,0l-1.67,-5.333l-0.026,0l0,5.333l-1.701,0l0,-7.392l2.611,0l1.208,3.761c0.043,0.156 0.08,0.294 0.11,0.413c0.031,0.119 0.057,0.229 0.078,0.331c0.022,0.102 0.042,0.201 0.059,0.299c0.017,0.097 0.037,0.2 0.058,0.308l0.033,0Z" style="fill:#385958;fill-rule:nonzero;"/><path d="M155.114,192.763l0,1.312l0.805,0c0.273,0 0.5,-0.002 0.682,-0.006c0.182,-0.005 0.312,-0.011 0.39,-0.02c0.19,-0.026 0.35,-0.097 0.477,-0.214c0.128,-0.117 0.192,-0.26 0.192,-0.429c0,-0.169 -0.051,-0.308 -0.153,-0.419c-0.101,-0.11 -0.25,-0.176 -0.445,-0.198c-0.082,-0.009 -0.229,-0.015 -0.441,-0.019c-0.213,-0.005 -0.488,-0.007 -0.825,-0.007l-0.682,0Zm0,2.813l0,1.572l1.214,0c0.52,0 0.851,-0.013 0.994,-0.039c0.165,-0.035 0.308,-0.117 0.429,-0.247c0.121,-0.13 0.182,-0.29 0.182,-0.481c0,-0.355 -0.171,-0.593 -0.513,-0.714c-0.191,-0.061 -0.615,-0.091 -1.274,-0.091l-1.032,0Zm-1.871,-4.307l3.358,0c0.485,0 0.895,0.026 1.231,0.078c0.336,0.052 0.618,0.154 0.848,0.305c0.234,0.156 0.425,0.362 0.575,0.617c0.149,0.256 0.224,0.542 0.224,0.858c0,0.169 -0.025,0.334 -0.075,0.497c-0.05,0.162 -0.12,0.314 -0.211,0.455c-0.091,0.14 -0.2,0.267 -0.328,0.38c-0.128,0.112 -0.27,0.203 -0.426,0.272c0.455,0.135 0.803,0.359 1.043,0.673c0.24,0.314 0.361,0.685 0.361,1.114c0,0.268 -0.046,0.523 -0.137,0.763c-0.091,0.24 -0.219,0.455 -0.383,0.643c-0.165,0.188 -0.362,0.342 -0.591,0.461c-0.23,0.119 -0.485,0.194 -0.767,0.224c-0.125,0.013 -0.338,0.024 -0.636,0.033c-0.299,0.008 -0.689,0.015 -1.17,0.019l-2.916,0l0,-7.392Z" style="fill:#385958;fill-rule:nonzero;"/><path d="M161.441,198.661l0,-7.392l1.87,0l0,5.879l3.748,0l0,1.513l-5.618,0Z" style="fill:#385958;fill-rule:nonzero;"/><path d="M168.378,198.661l0,-7.392l5.898,0l0,1.514l-4.027,0l0,1.247l3.748,0l0,1.513l-3.748,0l0,1.605l4.17,0l0,1.513l-6.041,0Z" style="fill:#385958;fill-rule:nonzero;"/><path d="M175.9,191.269l2.936,0c0.312,0 0.593,0.011 0.845,0.033c0.251,0.021 0.461,0.056 0.63,0.103c0.355,0.1 0.67,0.256 0.945,0.468c0.275,0.212 0.505,0.473 0.692,0.783c0.186,0.31 0.328,0.665 0.425,1.065c0.098,0.401 0.146,0.837 0.146,1.309c0,0.654 -0.098,1.219 -0.295,1.696c-0.197,0.476 -0.46,0.87 -0.79,1.182c-0.116,0.112 -0.253,0.214 -0.409,0.305c-0.156,0.091 -0.336,0.17 -0.542,0.237c-0.206,0.067 -0.438,0.119 -0.695,0.156c-0.258,0.037 -0.547,0.055 -0.867,0.055l-3.021,0l0,-7.392Zm1.871,1.514l0,4.365l0.948,0c0.316,0 0.575,-0.019 0.776,-0.055c0.202,-0.037 0.364,-0.094 0.488,-0.169c0.123,-0.076 0.219,-0.172 0.289,-0.289c0.069,-0.117 0.13,-0.254 0.182,-0.41c0.095,-0.29 0.143,-0.71 0.143,-1.26c0,-0.381 -0.025,-0.698 -0.075,-0.951c-0.05,-0.254 -0.124,-0.461 -0.221,-0.621c-0.097,-0.16 -0.217,-0.281 -0.357,-0.364c-0.141,-0.082 -0.302,-0.142 -0.484,-0.181c-0.1,-0.022 -0.248,-0.038 -0.445,-0.049c-0.197,-0.011 -0.445,-0.016 -0.744,-0.016l-0.5,0Z" style="fill:#385958;fill-rule:nonzero;"/></svg>